<!--?xml version="1.0" encoding="UTF-8"?--><svg id="Layer_1" xmlns="http://www.w3.org/2000/svg" viewBox="0 0 260.24 334.27" style=""><defs><style>.cls-1{stroke:#8dc63f;}.cls-1,.cls-2{fill:none;stroke-linecap:round;stroke-linejoin:round;stroke-width:2px;}.cls-2{stroke:#00aeef;}</style></defs><path class="cls-2 NIjDbpkJ_0" d="M88.41,17.94c-1.64-.3-3.21-1.09-4.48-2.36-3.34-3.34-3.34-8.74,0-12.08,1.66-1.66,3.84-2.5,6.02-2.5,0,0,.02,0,.02,0,2.19,0,4.37,.83,6.04,2.5,3.34,3.34,3.34,8.74,0,12.08-1.5,1.5-3.41,2.32-5.37,2.48-.01,0-.02,0-.03,0-.04,0,0,0-.04,0v.09c3.88,18.29,20.11,32.02,39.55,32.02v.03l-.13,79.76c-21.07,.97-37.88,18.25-38.1,39.5,0,.15,0,.26,0,.41h-.23s-72.58,0-72.58,0h-.99s0-.1,0-.15c0-.01,0-.02,0-.03,0-1.96-.68-3.93-2.05-5.54-3.07-3.58-8.46-4-12.04-.94-1.79,1.53-2.79,3.65-2.96,5.83,0,0,0,.02,0,.02-.16,2.17,.5,4.41,2.03,6.19,3.07,3.58,8.46,4,12.04,.94,1.53-1.3,2.48-3.03,2.83-4.86"></path><path class="cls-1 NIjDbpkJ_1" d="M171.83,172.98c1.64-.3,3.21-1.09,4.48-2.36,3.34-3.34,3.34-8.74,0-12.08-1.66-1.66-3.84-2.5-6.02-2.5,0,0-.02,0-.02,0-2.19,0-4.37,.83-6.04,2.5-3.34,3.34-3.34,8.74,0,12.08,1.5,1.5,3.41,2.32,5.37,2.48,.01,0,.02,0,.03,0,.04,0,0,0,.04,0v.09c-3.88,18.29-20.11,32.02-39.55,32.02v.03s.13,79.76,.13,79.76c21.07,.97,37.88,18.25,38.1,39.5,0,.15,0,.26,0,.41h.23s72.58,0,72.58,0h.99s0-.1,0-.15c0-.01,0-.02,0-.03,0-1.96,.68-3.93,2.05-5.54,3.07-3.58,8.46-4,12.04-.94,1.79,1.53,2.79,3.65,2.96,5.83,0,0,0,.02,0,.02,.16,2.17-.5,4.41-2.03,6.19-3.07,3.58-8.46,4-12.04,.94-1.53-1.3-2.48-3.03-2.83-4.86"></path><style data-made-with="vivus-instant">.NIjDbpkJ_0{stroke-dasharray:374 376;stroke-dashoffset:375;animation:NIjDbpkJ_draw_0 12800ms linear 0ms infinite,NIjDbpkJ_fade 12800ms linear 0ms infinite;}.NIjDbpkJ_1{stroke-dasharray:374 376;stroke-dashoffset:375;animation:NIjDbpkJ_draw_1 12800ms linear 0ms infinite,NIjDbpkJ_fade 12800ms linear 0ms infinite;}@keyframes NIjDbpkJ_draw{100%{stroke-dashoffset:0;}}@keyframes NIjDbpkJ_fade{0%{stroke-opacity:1;}68.75%{stroke-opacity:1;}100%{stroke-opacity:0;}}@keyframes NIjDbpkJ_draw_0{6.25%{stroke-dashoffset: 375}32.291666666666664%{ stroke-dashoffset: 0;}100%{ stroke-dashoffset: 0;}}@keyframes NIjDbpkJ_draw_1{19.270833333333336%{stroke-dashoffset: 375}45.3125%{ stroke-dashoffset: 0;}100%{ stroke-dashoffset: 0;}}</style></svg>